<?xml version="1.0" standalone="no"?>
<!DOCTYPE svg PUBLIC "-//W3C//DTD SVG 1.1//EN" "http://www.w3.org/Graphics/SVG/1.1/DTD/svg11.dtd" >
<svg xmlns="http://www.w3.org/2000/svg">
<metadata>
Created by FontForge 20120731 at Thu Jul 13 16:18:43 2017
 By admin
</metadata>
<defs>
<font id="iconfont" horiz-adv-x="1024" >
  <font-face 
    font-family="iconfont"
    font-weight="500"
    font-stretch="normal"
    units-per-em="1024"
    panose-1="2 0 6 3 0 0 0 0 0 0"
    ascent="896"
    descent="-128"
    x-height="792"
    bbox="0 -212.02 2572 896"
    underline-thickness="0"
    underline-position="0"
    unicode-range="U+0078-E757"
  />
<missing-glyph 
 />
    <glyph glyph-name=".notdef" 
 />
    <glyph glyph-name=".notdef" 
 />
    <glyph glyph-name=".null" horiz-adv-x="0" 
 />
    <glyph glyph-name="nonmarkingreturn" horiz-adv-x="341" 
 />
    <glyph glyph-name="x" unicode="x" horiz-adv-x="1001" 
d="M281 543q-27 -1 -53 -1h-83q-18 0 -36.5 -6t-32.5 -18.5t-23 -32t-9 -45.5v-76h912v41q0 16 -0.5 30t-0.5 18q0 13 -5 29t-17 29.5t-31.5 22.5t-49.5 9h-133v-97h-438v97zM955 310v-52q0 -23 0.5 -52t0.5 -58t-10.5 -47.5t-26 -30t-33 -16t-31.5 -4.5q-14 -1 -29.5 -0.5
t-29.5 0.5h-32l-45 128h-439l-44 -128h-29h-34q-20 0 -45 1q-25 0 -41 9.5t-25.5 23t-13.5 29.5t-4 30v167h911zM163 247q-12 0 -21 -8.5t-9 -21.5t9 -21.5t21 -8.5q13 0 22 8.5t9 21.5t-9 21.5t-22 8.5zM316 123q-8 -26 -14 -48q-5 -19 -10.5 -37t-7.5 -25t-3 -15t1 -14.5
t9.5 -10.5t21.5 -4h37h67h81h80h64h36q23 0 34 12t2 38q-5 13 -9.5 30.5t-9.5 34.5q-5 19 -11 39h-368zM336 498v228q0 11 2.5 23t10 21.5t20.5 15.5t34 6h188q31 0 51.5 -14.5t20.5 -52.5v-227h-327z" />
    <glyph glyph-name="d" unicode="&#xe615;" 
d="M512 623q-80 0 -136.5 -56.5t-56.5 -136t56.5 -136t136.5 -56.5t136.5 56.5t56.5 136t-56.5 136t-136.5 56.5zM512 304q-52 0 -89.5 37t-37.5 89.5t37.5 89.5t89.5 37t89.5 -37t37.5 -89.5t-37.5 -89.5t-89.5 -37zM512 812q-101 0 -187 -50t-135.5 -135.5t-49.5 -186.5
q0 -58 38 -146t93 -173.5t109.5 -161.5t93 -124t38.5 -47q15 18 40 49.5t89.5 119.5t113.5 166t89 168.5t40 148.5q0 101 -49.5 186.5t-135.5 135.5t-187 50zM205 434q0 127 90 217t217 90t217 -90t90 -217q0 -48 -31.5 -122t-76.5 -145.5t-90.5 -136.5t-76.5 -105t-32 -40
q-12 15 -33 41.5t-74 101t-93.5 140.5t-73.5 142t-33 124v0z" />
    <glyph glyph-name="edit" unicode="&#xe69e;" 
d="M34 665h-25v-25v-598q0 -52 36.5 -89t88.5 -37h794h25v25v484q0 10 -7.5 17.5t-17.5 7.5t-17.5 -7.5t-7.5 -17.5v-484l25 25h-794q-31 0 -53 22.5t-22 53.5v598l-25 -25h565q10 0 17.5 7t7.5 17.5t-7.5 18t-17.5 7.5h-565zM437 302l-5 -6v-9l-4 -149l-1 -36l34 12l144 51
l7 3l4 6l387 511l16 20l-21 16l-129 97l-19 15l-15 -20zM840 778l128 -98l-4 36l-387 -511l11 8l-143 -52l33 -24l4 149l-6 -15l398 511zM891 585l29 41l-112 82l-29 -41z" />
    <glyph glyph-name="form" unicode="&#xe6a2;" 
d="M836 847q30 0 52 -21.5t22 -51.5v-713l7 17l-162 -165l18 8h-585q-30 0 -52 21.5t-22 51.5v878l-25 -25h747zM64 896v-24v-878q0 -51 36.5 -86.5t87.5 -35.5h585h11l7 7l162 165l7 7v10v713q0 51 -36.5 86.5t-87.5 35.5h-747h-25zM736 189q-31 0 -53 -21.5t-22 -51.5
v-146q0 -11 7.5 -18t18 -7t17.5 7t7 18v146q0 10 7.5 17t17.5 7h112q10 0 17.5 7t7.5 17.5t-7.5 17.5t-17.5 7h-112zM775 677q10 0 17.5 7t7.5 17t-7.5 17t-17.5 7h-512q-10 0 -17.5 -7t-7.5 -17t7.5 -17t17.5 -7h512zM775 530q10 0 17.5 7.5t7.5 17.5t-7.5 17t-17.5 7h-512
q-10 0 -17.5 -7t-7.5 -17t7.5 -17.5t17.5 -7.5h512zM775 360q10 0 17.5 7t7.5 17t-7.5 17t-17.5 7h-512q-10 0 -17.5 -7t-7.5 -17t7.5 -17t17.5 -7h512z" />
    <glyph glyph-name="pic" unicode="&#xe6a8;" 
d="M475 320l-35 -4l228 -144l16 -11l15 12l313 231l12 9v14v260q0 60 -41.5 102.5t-100.5 42.5h-854h-28v-29v-722q0 -60 41.5 -102.5t100.5 -42.5h854h28v29v260q0 12 -8.5 20.5t-20 8.5t-20 -8.5t-8.5 -20.5v-260l29 29h-854q-35 0 -60 25.5t-25 61.5v722l-29 -29h854
q35 0 60 -25.5t25 -61.5v-260l12 24l-313 -231l32 1l-228 144l-19 12l-16 -16l-228 -231q-8 -9 -8 -21t8.5 -20t20 -8t20.5 8zM341 557.5q0 41.5 -29 71.5t-70 30t-70.5 -30t-29.5 -71.5t29.5 -71.5t70.5 -30t70 30t29 71.5zM199 557q0 18 12.5 31t30 13t30 -13t12.5 -31
t-12.5 -30.5t-30 -12.5t-30 12.5t-12.5 30.5z" />
    <glyph glyph-name="rfq" unicode="&#xe6ab;" 
d="M798 404l-37 1l191 -236l18 39h-119h-24v-24v-264l24 23h-167l24 -23v166q0 10 -7 17t-17 7t-17 -7t-7 -17v-166v-24h24h167h24v24v264l-24 -24h119h50l-31 39l-190 236l-18 22l-19 -21l-209 -238q-7 -7 -6.5 -17t8 -16.5t17.5 -6t16 8.5zM154 -33q-35 0 -60 26t-25 63
v816l-24 -24h703q35 0 60 -25.5t25 -62.5v-427h48v427q0 56 -39 96t-94 40h-703h-24v-24v-816q0 -57 39 -96.5t94 -39.5h533v47h-533zM735 515q10 0 17 7t7 17t-7 17t-17 7h-546q-9 0 -16 -7t-7 -17t7 -17t16 -7h546zM738 658q10 0 17 7t7 17t-7 16.5t-17 6.5h-546
q-10 0 -17 -6.5t-7 -16.5t7 -17t17 -7h546z" />
    <glyph glyph-name="search" unicode="&#xe6ac;" 
d="M1002 -96q-2 5 -3 7l-4 6q-3 4 -10 11q-10 12 -31 34q-26 27 -96 98q-69 70 -95 97q-20 21 -30 32q-5 6 -7 8q1 -1 3 -5q1 -6 0 -9t-7 -16q62 60 95.5 139.5t33.5 167.5q0 114 -55.5 211.5t-151 154t-208 56.5t-208.5 -56.5t-151.5 -154t-55.5 -212t55.5 -212t151.5 -154
t208 -56.5q8 0 16 1q5 0 15 1q17 2 23 2q13 0 47 10l8 2q13 3 26 7q7 3 11 4q10 3 15 12.5t2 19.5t-12.5 15t-19.5 2q-4 -2 -11 -4q-13 -4 -24 -7l-8 -2q-28 -8 -34 -8q-9 0 -28 -2q-9 -1 -13 -1q-7 -1 -13 -1q-99 0 -183 50t-132.5 135.5t-48.5 186t48.5 186t132.5 135.5
t183 50t183 -50t133 -135.5t49 -185.5q0 -78 -29.5 -147.5t-84.5 -122.5q-7 -13 -8 -16.5t1 -9.5q2 -4 3 -7q1 -2 4 -5q3 -5 9 -11q11 -12 31 -34q26 -27 95.5 -97.5t95.5 -97.5q20 -21 30 -32q5 -6 7 -8q-1 2 -2 6q-2 6 -1 9t9 16q-8 -7 -9 -17.5t6 -18.5t17 -9t18 6
q8 13 9 16.5t0 9.5z" />
    <glyph glyph-name="set" unicode="&#xe6ae;" 
d="M826 248l-7 -12l8 -12l78 -116l4 31l-139 -135l29 3l-128 76l-10 6l-11 -4q-13 -5 -25 -10l-13 -4l-3 -14l-28 -131l24 19h-197l24 -18l-34 137l-3 13l-12 4q-11 4 -22 10l-12 5l-11 -7l-120 -77l30 -3l-139 136l4 -31l78 125l7 11l-6 11l-10 26l-4 13l-14 2l-135 28
l20 -24v191l-19 -23l141 33l12 3l5 11q5 13 12 25l6 13l-8 12l-73 110l-3 -30l138 136l-30 -3l123 -75l10 -6l12 5l20 8l12 4l3 13l33 133l-23 -19h196l-24 20l29 -136l3 -13l13 -5q15 -6 30 -13l12 -6l11 7l114 72l-30 3l140 -135l-4 31l-76 -120l-7 -11l5 -12
q6 -12 10 -25l5 -12l13 -4l134 -31l-19 24v-192l20 24l-142 -29l-13 -2l-5 -12q-4 -11 -9 -22zM858 260l5 -24l141 29l20 4v20v192v19l-19 4l-134 32l-6 -24l23 8q-5 15 -11 29l-22 -10l20 -13l77 120l10 17l-14 13l-140 135l-14 13l-16 -10l-114 -71l13 -21l11 22
q-17 8 -34 15l-9 -23l24 5l-29 136l-4 19h-20h-196h-19l-5 -19l-33 -133l24 -5l-8 23q-12 -4 -23 -9l9 -23l13 21l-123 74l-16 10l-14 -13l-138 -137l-14 -14l11 -17l73 -110l21 13l-22 11q-7 -14 -13 -28l23 -9l-6 23l-141 -33l-19 -4v-20v-191v-20l20 -4l134 -27l5 24
l-23 -9q5 -14 12 -28l22 10l-21 12l-78 -124l-10 -17l14 -13l139 -136l14 -13l16 10l120 77l-13 20l-10 -22l24 -10l9 22l-23 -5l34 -138l4 -19h19h197h20l4 20l28 131l-24 5l7 -23q15 5 28 11l-9 22l-12 -21l127 -76l16 -9l14 13l139 135l14 14l-11 17l-78 116l-21 -13
l22 -11q6 12 11 24zM731 396q0 86 -60.5 146.5t-146.5 60.5t-146.5 -60.5t-60.5 -146.5t60.5 -146.5t146.5 -60.5q44 0 84 18q9 4 13 13.5t0 18.5t-13.5 12.5t-19.5 -0.5q-30 -13 -64 -13q-65 0 -111.5 46.5t-46.5 112t46.5 112t112 46.5t112 -46.5t46.5 -112.5
q0 -17 -4 -34q-2 -10 3.5 -18.5t15 -10.5t18 3.5t11.5 15.5q4 22 4 44z" />
    <glyph glyph-name="training" unicode="&#xe6b3;" 
d="M887 773q30 0 51.5 -21.5t21.5 -52.5v-467l24 25h-847q-30 0 -51.5 21.5t-21.5 52.5v467l-24 -25h847zM16 822v-24v-467q0 -51 35.5 -87t85.5 -36h847h24v24v467q0 51 -35.5 87t-85.5 36h-847h-24zM196 -69q-7 -7 -6.5 -17.5t7.5 -17t17 -6.5t17 8l219 242q7 8 6.5 18
t-7.5 17t-17 6.5t-17 -8.5zM798 -102q7 -8 17 -8t17.5 6.5t8 17t-6.5 17.5l-219 242q-7 8 -17 8.5t-17.5 -6.5t-8 -17t6.5 -18zM442 792q0 -8 7 -13.5t17 -5.5t17 5.5t7 13.5v85q0 8 -7 13.5t-17 5.5t-17 -5.5t-7 -13.5v-85zM515 589q10 0 17 7t7 17.5t-7 17.5t-17 7h-356
q-10 0 -17.5 -7t-7.5 -17.5t7.5 -17.5t17.5 -7h356zM515 431q10 0 17 7t7 17.5t-7 17.5t-17 7h-356q-10 0 -17.5 -7t-7.5 -17.5t7.5 -17.5t17.5 -7h356zM680 344q78 61 78 174v161q0 10 -7 17.5t-17 7.5t-17 -7.5t-7 -17.5v-161q0 -89 -59 -136q-19 -14 -41 -23
q-11 -4 -18 -5q-9 -2 -15 -10.5t-4 -18.5t10.5 -16t18.5 -4q39 8 78 39zM753 663q6 8 5 18.5t-8.5 17t-17.5 5.5t-17 -9l-109 -135q-7 -8 -6 -18t9 -16.5t18 -5.5t16 9zM753 695q-7 8 -17 9t-17.5 -5.5t-8.5 -17t5 -18.5l110 -134q6 -8 16 -9t18 5.5t9 16.5t-6 18z" />
    <glyph glyph-name="account" unicode="&#xe6b8;" 
d="M794 579q0 122 -86.5 209t-208.5 87t-208 -87t-86 -209t86 -209t208 -87t208.5 87t86.5 209zM256 579q0 101 71 172.5t172 71.5t172 -71.5t71 -172.5t-71 -172.5t-172 -71.5t-172 71.5t-71 172.5zM0 -102v-26h26h460h512h26v26q0 85 -41.5 165.5t-111 140t-164 95.5
t-195.5 36q-25 0 -49 -2q-7 -1 6 -9q17 -11 17 -19q8 1 13 -10.5t13 -11.5q91 0 176.5 -32t147.5 -85t99.5 -123.5t37.5 -144.5l25 25h-512h-460l25 -25q0 102 60 190t164 141q10 4 13 14.5t-1.5 20t-14.5 12.5t-20 -1q-116 -59 -184 -159.5t-68 -217.5z" />
    <glyph glyph-name="peiziiconfont10" unicode="&#xe60d;" 
d="M848 356v-448q0 -22 -17 -39t-39 -17h-560q-22 0 -39 17t-17 39v448q0 22 17 39t39 17h56v112q0 92 66 158t158 66t158 -66t66 -158v-112h56q22 0 39 -17t17 -39zM568 132q0 22 -17 39t-39 17t-39 -17t-17 -39t17 -39t39 -17t39 17t17 39zM512 636q-48 0 -80 -32t-32 -80
v-112h224v112q0 48 -32 80t-80 32z" />
    <glyph glyph-name="print" unicode="&#xe6c9;" 
d="M24 630h878q30 0 51.5 -21.5t21.5 -51.5v-440l25 24h-147l25 -24v97v25h-25h-682h-25v-25v-97l25 24h-49q-30 0 -51.5 21.5t-21.5 52.5v440l-25 -25v0zM24 679h-24v-24v-440q0 -51 35.5 -87t86.5 -36h49h24v25v97l-24 -24h682l-24 24v-97v-25h24h147h24v25v440
q0 50 -35.5 86t-86.5 36h-878v0zM756 -104l24 25h-536l24 -25v224q0 10 -7 17t-17 7t-17.5 -7t-7.5 -17v-224q0 -10 7.5 -17t17.5 -7h536q10 0 17.5 7t7.5 17v224q0 10 -7.5 17t-17.5 7t-17 -7t-7 -17v-224zM207 459h317v49h-317v-49v0zM219 655v195l-24 -24h634l-24 24
v-195h48v195v25h-24h-634h-24v-25v-195h48v0z" />
    <glyph glyph-name="electronics" unicode="&#xe6da;" 
d="M66 742h798q29 0 49.5 -20.5t20.5 -49.5v-540l24 24h-798q-29 0 -49.5 20.5t-20.5 49.5v540l-24 -24v0zM66 789h-23v-23v-540q0 -48 34 -82.5t83 -34.5h798h23v23v540q0 49 -34 83t-83 34h-798v0zM408 130l-70 -164q-4 -9 -0.5 -18t12.5 -13t18 -0.5t13 12.5l70 164
q4 9 0.5 18t-12.5 13t-18 0.5t-13 -12.5v0zM587 47l82 -105q6 -8 16 -9t17.5 5t8.5 15.5t-4 17.5l-83 105q-6 8 -15.5 9t-17 -5t-9 -15.5t4.5 -17.5v0zM242 -79h563q10 0 17 7t7 16.5t-7 16.5t-17 7h-563q-10 0 -16.5 -7t-6.5 -16.5t6.5 -16.5t16.5 -7v0z" />
    <glyph glyph-name="lights" unicode="&#xe6de;" 
d="M680 -67q-9 0 -23 -1q-29 0 -57 -1q-40 -1 -74 -1q-67 -1 -105 -1q-22 1 -33 1q-5 1 -7 1q1 0 2 -1q14 -6 14 -21v93v77v42q0 11 -8 18q-4 3 -9 8q-12 11 -25 24q-40 40 -74 81q-68 84 -92 154q-12 35 -12 65q0 96 47.5 178t129 129.5t178 47.5t178 -47.5t129 -129.5
t47.5 -178q0 -27 -11 -58q-25 -73 -105 -161q-37 -41 -82 -81q-14 -12 -27 -23q-6 -5 -10 -8q-9 -7 -9 -19v-114l24 24h-281q-10 0 -17.5 -7t-7.5 -17.5t7.5 -17.5t17.5 -7h281q10 0 17 7t7 18v114l-9 -20q4 4 11 9q14 12 28 25q47 41 86 84q87 96 116 178q13 39 13 74
q0 110 -54 203t-147 147t-202.5 54t-202.5 -54t-147 -147t-54 -203q0 -38 15 -81q27 -78 101 -169q35 -43 77 -85l25 -25q7 -6 10 -9l-8 19v-42v-77v-93q0 -17 16 -24q3 -1 7 -2q5 -1 13 -1q13 -1 36 -2q39 0 107 1q34 0 74 1q29 1 57 2h23q10 1 17 8t7 17.5t-7.5 17
t-17.5 6.5v0zM380 344l122 -122q7 -7 16.5 -7.5t17.5 6.5l122 110q7 6 8 16.5t-6 18t-17 8t-18 -6.5l-122 -110l34 -1l-123 122q-7 8 -17 8t-17 -7.5t-7 -17.5t7 -17v0zM495 227v-208h49v208h-49v0z" />
    <glyph glyph-name="shangchuan" unicode="&#xe60e;" horiz-adv-x="1027" 
d="M481 375h64v-491h-64v491zM492 396l45 -45l-129 -132l-46 45zM516 417l148 -150l-46 -45l-148 150zM353 60h-157q-13 0 -22.5 9t-9.5 22.5t9.5 23t22.5 9.5h157q13 0 22.5 -9.5t9.5 -23t-9.5 -22.5t-22.5 -9zM845 60h-173q-13 0 -22.5 9t-9.5 22.5t9.5 23t22.5 9.5h173
q13 0 22.5 -9.5t9.5 -23t-9.5 -22.5t-22.5 -9zM196 60q-66 0 -121 50q-35 32 -55 76.5t-20 88.5q0 63 36 116t97 80q12 6 24.5 1t17.5 -17t0.5 -24.5t-16.5 -17.5q-43 -19 -69 -56.5t-26 -81.5q0 -31 15 -63t40 -55q40 -37 85 -33q13 1 23 -7.5t11 -21.5t-7.5 -23.5
t-21.5 -11.5h-13zM150 410h-3q-13 2 -21.5 12t-7.5 23q5 55 50 94.5t103 39.5v0q45 0 82 -25q11 -8 13.5 -21t-5 -24t-20.5 -13.5t-24 5.5q-21 14 -46 14v0q-33 0 -59.5 -22.5t-29.5 -53.5q-1 -12 -10 -20.5t-22 -8.5zM787 393q-3 0 -7 1q-13 2 -20 13.5t-4 24.5q4 18 4 37
q0 75 -57 128t-137 53q-68 0 -120.5 -38.5t-68.5 -99.5q-4 -13 -15.5 -19.5t-24 -3t-19.5 15t-3 23.5q21 83 91 134.5t160 51.5q107 0 182.5 -71.5t75.5 -173.5q0 -26 -6 -51q-2 -11 -11 -18t-20 -7zM833 59q-13 0 -22.5 9.5t-9.5 23t9.5 22.5t22.5 9q54 0 92 40t38 96.5
t-38 96.5t-92 40q-19 0 -37 -6q-13 -4 -24.5 2.5t-15.5 19t2 24t19 15.5q27 9 56 9q80 0 137 -59t57 -141.5t-57 -141.5t-137 -59z" />
    <glyph glyph-name="wenhao" unicode="&#xe610;" 
d="M506 697q106 0 196 -52.5t142 -142.5t52 -196t-52 -196t-142 -142t-196 -52t-196 52t-142.5 142t-52.5 196t52.5 196t142.5 142.5t196 52.5v0zM520 191q1 33 5 47q4 15 12 26q8 12 35 35q40 36 53.5 60.5t13.5 54.5q0 50 -39 85.5t-104 35.5q-62 0 -100 -33t-45 -96
l56 -6q8 46 31.5 68t58.5 22q36 0 61 -24t25 -56q0 -18 -8.5 -33t-37 -40t-39.5 -38q-15 -18 -22 -36q-9 -23 -9 -56v-16h53v0zM527 81v62h-63v-62h63v0z" />
    <glyph glyph-name="daochuexcel" unicode="&#xe602;" 
d="M626 748v-189h189v63l-126 126h-63zM530 170l-49 77l-50 -77h-118l109 168l-109 168h118l50 -77l49 77h119l-109 -168l109 -168h-119zM895 -1l-185 147v-103h-267v-92h267v-99zM407 -80h-209v758h550v-507h69v467l-110 110h-578v-895h278v67z" />
    <glyph glyph-name="iconfontwodeon" unicode="&#xe611;" 
d="M896 134q-26 18 -74 31q-11 3 -40.5 9.5t-45 11t-39 14t-42 24.5t-33.5 35q-1 2 -2.5 4.5t-3 12t0.5 20.5t12 30.5t28 40.5q30 37 45 89.5t14.5 103t-7.5 100.5q-11 69 -68.5 113t-128.5 44t-128.5 -44t-68.5 -113q-7 -50 -7.5 -100.5t15 -103t44.5 -89.5q18 -21 28 -40
t12 -31t1 -20.5t-3 -12.5l-3 -4q-15 -20 -33 -34.5t-41.5 -24t-38.5 -14.5t-45 -11.5t-41 -8.5q-48 -13 -75 -32q-22 -16 -36 -41t-19 -47.5t-6 -47t0 -33.5t2 -14v0h886q1 5 2 14t0 33.5t-6 47t-19 47.5t-36 41v0v0z" />
    <glyph glyph-name="btnuparrown" unicode="&#xe606;" 
d="M512 576l512 -384h-1023l511 384v0z" />
    <glyph glyph-name="iconorder" unicode="&#xe608;" horiz-adv-x="1025" 
d="M912 -16q-27 -27 -65 -27h-670q-38 0 -65 27t-27 65v396v61v213q0 38 27 65t65 27h670q38 0 65 -27t27 -65v-670q0 -38 -27 -65zM878 625v73v21q0 13 -9 22t-22 9h-670q-13 0 -22 -9t-9 -22v-20v-73v-120h732v119zM878 445h-732v-396q0 -13 9 -22t22 -9h670q13 0 22 9
t9 22v396zM268 201h488v-61h-488v61zM451 323h305v-61h-305v61zM298.5 689q25.5 0 43.5 -18t18 -43t-18 -43t-43.5 -18t-43 18t-17.5 43t17.5 43t43 18zM512 689q25 0 43 -18t18 -43t-18 -43t-43 -18t-43 18t-18 43t18 43t43 18zM725.5 689q25.5 0 43 -18t17.5 -43
t-17.5 -43t-43 -18t-43.5 18t-18 43t18 43t43.5 18z" />
    <glyph glyph-name="icongoodsn" unicode="&#xe60a;" horiz-adv-x="1026" 
d="M861 372q-49 -28 -102 -20t-91 47q-12 -33 -40.5 -54t-65.5 -21h-91q-38 0 -68 23.5t-40 59.5q-37 -43 -92.5 -52.5t-105.5 19.5q-57 34 -74 98.5t16 123.5l79 140q8 15 22 28v3q0 18 12.5 31t30.5 13h67h3.5h3.5h146h91h212q18 0 30.5 -13t12.5 -31v-7q14 -15 22 -30
l80 -139q32 -57 15 -121.5t-73 -97.5zM873 564l-80 139q-22 39 -66 50v-2h-59h-96h-112h-88h-98h-5v-4q-24 -15 -37 -38l-79 -141q-22 -38 -11 -81.5t49 -66t80.5 -11t64.5 50.5l25 46h49v-53q0 -32 22.5 -54t53.5 -22h61q31 0 53 22t22 54v53h40l28 -48q21 -39 63.5 -50
t80.5 11t49.5 64.5t-10.5 80.5zM208 293v-274h609v274h62v0v0v-275q0 -25 -18 -43t-43 -18h-609q-26 0 -43.5 18t-17.5 43v275v0v0h60z" />
    <glyph glyph-name="iconsetkaobei4" unicode="&#xe60c;" horiz-adv-x="1025" 
d="M786 -43h-548q-63 0 -108 45t-45 108v548q0 63 45 108t108 45h548q63 0 108 -45t45 -108v-548q0 -63 -45 -108t-108 -45zM878 658q0 38 -27 65t-65 27h-548q-38 0 -65 -27t-27 -65v-548q0 -38 27 -65t65 -27h548q38 0 65 27t27 65v548zM664 140h-122v31h-274v61h274v30
h122v-30h92v-61h-92v-31zM482 323h-122v31h-92v60h92v31h122v-31h274v-60h-274v-31zM664 506h-122v30h-274v61h274v31h122v-31h92v-61h-92v-30z" />
    <glyph glyph-name="dowmarrow" unicode="&#xe603;" horiz-adv-x="1025" 
d="M512 192l512 384h-1023l511 -384v0z" />
    <glyph glyph-name="leftarrow" unicode="&#xe604;" 
d="M768 896v-1024l-512 521z" />
    <glyph glyph-name="rightarrow" unicode="&#xe617;" 
d="M256 896v-1024l512 521z" />
    <glyph glyph-name="store" unicode="&#xe722;" 
d="M958 725q-2 45 -34 76t-77 31h-2h-2h-760q-8 0 -15 -6q-6 -13 -6 -15v-762v0q1 -47 34 -80t79 -33h2h2h363q30 0 30 21v384h173v-382q0 -8 8 -17q6 -6 15 -6h169q8 0 14.5 6t6.5 15v0v2v764v2zM915 721v0v-134q0 -33 -25 -54t-60 -21q-34 0 -58.5 20.5t-24.5 52.5v2v0
v202h-43v-202v0v-2q-2 -33 -27.5 -53t-59.5 -20q-35 0 -59.5 20.5t-24.5 52.5v2v0v202h-42v-202v0v-2q-2 -33 -27.5 -53t-60.5 -20q-34 0 -57.5 20t-25.5 53v204h-43v-204q-1 -33 -26.5 -53t-60.5 -20q-36 0 -59.5 21t-23.5 54v202h736h2h4q26 0 46 -20.5t20 -47.5zM105 49
v450q36 -30 85 -30q69 0 107 52q37 -52 106 -52t107 52q37 -52 106.5 -52t106.5 52q38 -52 107 -52q51 0 87 30v-520h-128v384q0 9 -5.5 15t-15.5 6h-213q-10 0 -16 -6t-6 -15v0v0v-384h-354h-2h-2q-28 0 -49 21t-21 49z" />
    <glyph glyph-name="survey" unicode="&#xe74e;" 
d="M731 849q30 0 50.5 -20.5t20.5 -50.5v-329l-389 -399h11h-284q-29 0 -50 20.5t-21 49.5v729h-24h686zM22 896v-24v-752q0 -49 34.5 -83t83.5 -34h284h10l7 7l402 406l7 7v10v345q0 49 -35 83.5t-84 34.5h-686h-23zM778 260l89 -89l18 -20l98 99l-127 127l-96 -100z
M917 253l-35 -36l-59 58l34 37zM772 291l-256 -256l-5 -5l-2 -7l-23 -117l-7 -34l35 7l116 23l7 2l5 5l257 256l16 17l-16 16l-94 93l-16 17l-17 -17v0v0zM789 241l60 -60l-236 -233l-76 -17l19 78zM154 504h541q10 0 17 6.5t7 15.5t-7 15t-17 6h-541q-9 0 -16 -6t-7 -15
t7 -15.5t16 -6.5v0v0zM154 656h541q10 0 17 6.5t7 15.5t-7 15.5t-17 6.5h-541q-9 0 -16 -6.5t-7 -15.5t7 -15.5t16 -6.5v0v0z" />
    <glyph glyph-name="shenhe" unicode="&#xe65f;" 
d="M853 -112h-682q-10 0 -17 7t-7 16v139q0 9 7 16t16.5 7t16.5 -7t7 -16v-115h636v115q0 9 7 16t16.5 7t16.5 -7t7 -16v-139q0 -9 -7 -16t-17 -7v0zM899 26h-774q-10 0 -16.5 7t-6.5 17v69q0 29 20 49t49 20q47 0 105 22.5t101 61t43 77.5v23q0 31 -7.5 45.5t-47.5 55.5
q-39 33 -60 79t-21 97q0 96 66.5 163.5t161.5 67.5t161.5 -67.5t66.5 -163.5q0 -51 -21 -97t-59 -79q-41 -41 -48.5 -54.5t-7.5 -39.5v-30q0 -39 43 -77.5t101 -61t105 -22.5q29 0 49 -20t20 -49v-69q0 -10 -6.5 -17t-16.5 -7v0zM148 73h728v46q0 9 -6.5 15.5t-16.5 6.5
q-41 0 -91.5 16t-94.5 42q-53 32 -81.5 70.5t-28.5 79.5v0.5v0.5v0v29q0 37 12 59t58 69l0.5 0.5l0.5 0.5q65 55 65 141q0 76 -53 130t-128 54t-128 -54t-53 -130q0 -86 65 -141q0 -1 1 -2q47 -46 59 -70q11 -22 11 -64v-23q0 -40 -28.5 -79t-81.5 -71q-44 -26 -94.5 -42
t-91.5 -16q-10 0 -16.5 -6.5t-6.5 -15.5v-46v0v0z" />
    <glyph glyph-name="bussinesscard" unicode="&#xe753;" horiz-adv-x="1025" 
d="M448 491q0 53 -37.5 90.5t-90.5 37.5t-90.5 -37.5t-37.5 -90.5t37.5 -90.5t90.5 -37.5t90.5 37.5t37.5 90.5zM243 490.5q0 31.5 22.5 54t54.5 22.5t54.5 -22.5t22.5 -54t-22.5 -54t-54.5 -22.5t-54.5 22.5t-22.5 54zM131 227v-26h26h171h191h26v26q0 75 -62 131t-145 56
q-10 0 -20 -1q-11 -1 -17.5 -9.5t-6 -19.5t5 -15t15.5 -3q3 0 11.5 -2.5t11.5 -2.5q64 0 109.5 -31t45.5 -76h-165h-145q0 15 15.5 38t42.5 41q9 6 11.5 16.5t-3.5 20t-16.5 12t-19.5 -3.5q-82 -54 -82 -151zM128 72q-32 0 -54.5 22t-22.5 53v571h846q31 0 53.5 -22
t22.5 -54v-493q0 -10 7.5 -17.5t18.5 -7.5t18.5 7.5t7.5 17.5v493q0 52 -37.5 89t-90.5 37h-871h-26v-25v-596q0 -52 37.5 -89t90.5 -37h784q11 0 18.5 7.5t7.5 18t-7.5 18t-18.5 7.5h-784zM872 491q10 0 17 6t7 15t-7 15t-17 6h-293q-10 0 -17 -6t-7 -15t7 -15t17 -6h293z
M807 384q10 0 17.5 6t7.5 15t-7.5 15.5t-17.5 6.5h-227q-11 0 -18 -6.5t-7 -15.5t7 -15t18 -6h227z" />
    <glyph glyph-name="data" unicode="&#xe757;" 
d="M1024 384q0 139 -68.5 257t-186.5 186.5t-257 68.5t-257 -68.5t-186.5 -186.5t-68.5 -257t68.5 -257t186.5 -186.5t257 -68.5q173 0 310 105q8 5 9 14.5t-4.5 16.5t-14.5 8.5t-17 -4.5q-125 -95 -283 -95q-95 0 -181.5 37t-149 99.5t-99.5 149t-37 181.5t37 181.5
t99.5 149t149 99.5t181.5 37t181.5 -37t149 -99.5t99.5 -149t37 -181.5q0 -132 -68 -243q-4 -8 -2 -17t10 -14t17 -2.5t13 10.5q75 122 75 266zM369 420l-30 -2l225 -176l17 -14l14 18l245 315q6 7 5 16t-8.5 14.5t-16.5 4.5t-15 -8l-245 -315l31 4l-225 176l-16 13l-14 -16
l-159 -175q-6 -7 -5.5 -16.5t7 -15.5t16 -5.5t15.5 7.5z" />
    <glyph glyph-name="uncheck" unicode="&#xe605;" 
d="M895 -128h-766q-53 0 -90.5 37.5t-37.5 90.5v768q0 53 37.5 90.5t90.5 37.5h766q53 0 90.5 -37.5t37.5 -90.5v-768q0 -53 -37.5 -90.5t-90.5 -37.5zM959 768q0 27 -18.5 45.5t-45.5 18.5h-766q-27 0 -45.5 -18.5t-18.5 -45.5v-768q0 -27 18.5 -45.5t45.5 -18.5h766
q27 0 45.5 18.5t18.5 45.5v768z" />
    <glyph glyph-name="uncheak02" unicode="&#xe60f;" 
d="M512 -128q-139 0 -257 68.5t-186.5 186.5t-68.5 257t68.5 257t186.5 186.5t257 68.5t257 -68.5t186.5 -186.5t68.5 -257t-68.5 -257t-186.5 -186.5t-257 -68.5zM512 842q-93 0 -178 -36t-146.5 -97.5t-97.5 -146.5t-36 -178t36 -178t97.5 -146.5t146.5 -97.5t178 -36
t178 36t146.5 97.5t97.5 146.5t36 178t-36 178t-97.5 146.5t-146.5 97.5t-178 36z" />
    <glyph glyph-name="check02" unicode="&#xe612;" 
d="M512 -128q-139 0 -257 68.5t-186.5 186.5t-68.5 257t68.5 257t186.5 186.5t257 68.5t257 -68.5t186.5 -186.5t68.5 -257t-68.5 -257t-186.5 -186.5t-257 -68.5zM512 842q-93 0 -178 -36t-146.5 -97.5t-97.5 -146.5t-36 -178t36 -178t97.5 -146.5t146.5 -97.5t178 -36
t178 36t146.5 97.5t97.5 146.5t36 178t-36 178t-97.5 146.5t-146.5 97.5t-178 36zM512 384zM189 384q0 88 43 162.5t117.5 117.5t162.5 43t162.5 -43t117.5 -117.5t43 -162.5t-43 -162.5t-117.5 -117.5t-162.5 -43t-162.5 43t-117.5 117.5t-43 162.5z" />
    <glyph glyph-name="equipment" unicode="&#xe650;" 
d="M811 -55h-625q-36 0 -61.5 26.5t-25.5 63.5v174q0 36 25.5 63t61.5 27h333v139q0 26 19 46t47 20q29 0 47.5 -19t18.5 -47v-139h160q36 0 61 -27t25 -63v-174q0 -39 -25 -64.5t-61 -25.5zM186 243q-16 0 -27 -11t-11 -27v-173q0 -16 11 -27.5t27 -11.5h621q16 0 27 11.5
t11 27.5v173q0 16 -11 27t-27 11h-212v191q0 6 -4 10t-9.5 4t-9.5 -4t-4 -10v-191h-382zM769 455q-11 0 -17.5 7.5t-6.5 20.5q0 65 -43 110.5t-103 45.5t-103 -45.5t-43 -110.5q0 -11 -7 -19.5t-17 -8.5q-11 0 -18 7.5t-7 20.5q0 86 57.5 147t140.5 61t140.5 -61t57.5 -147
q-11 -28 -31 -28zM866 483q-11 0 -17.5 7.5t-6.5 20.5q0 104 -72.5 177t-174 73t-174 -73t-72.5 -177q0 -11 -7 -19.5t-17 -8.5q-11 0 -18 7.5t-7 20.5q0 125 86.5 213.5t208.5 88.5q123 0 211 -89t88 -213q0 -11 -9 -19.5t-19 -8.5zM193 104.5q0 -18.5 13 -32t31.5 -13.5
t32 13.5t13.5 32t-13.5 32t-32 13.5t-31.5 -13.5t-13 -32zM325 104.5q0 -18.5 13 -32t31.5 -13.5t32 13.5t13.5 32t-13.5 32t-32 13.5t-31.5 -13.5t-13 -32z" />
    <glyph glyph-name="Journal" unicode="&#xe652;" horiz-adv-x="1152" 
d="M887 -55h-580q-57 0 -94.5 38.5t-37.5 93.5v42q0 13 7.5 19.5t18.5 6.5q9 0 17 -8t8 -18v-42q0 -32 22.5 -54.5t54.5 -22.5h580q32 0 54.5 22.5t22.5 54.5v183q0 12 7.5 19t18.5 7q9 0 17 -8t8 -18v-183q7 -55 -29.5 -93.5t-94.5 -38.5zM201 260q-13 0 -19.5 7.5
t-6.5 18.5v166q0 12 7.5 19t18.5 7q9 0 17 -8t8 -18v-166q3 -9 -6 -17.5t-19 -8.5zM994 452q-12 0 -18.5 7.5t-6.5 18.5v183q0 32 -22.5 54.5t-54.5 22.5h-585q-32 0 -54.5 -22.5t-22.5 -54.5v-38q0 -9 -10 -17.5t-19 -8.5q-11 0 -20.5 9t-9.5 21v34q0 57 38.5 95t93.5 38
h580q57 0 94.5 -39t37.5 -94v-179q4 -13 -2 -21.5t-19 -8.5zM282 512h-171q-10 0 -18 8.5t-8 21.5q0 12 8 18.5t18 6.5h162q12 0 19 -7.5t7 -17.5q6 -12 -0.5 -21t-16.5 -9zM282 175h-171q-12 0 -19 7.5t-7 18.5q0 9 8.5 19t17.5 10h162q12 0 19 -7.5t7 -17.5
q6 -12 -0.5 -21t-16.5 -9zM887 -60h-580q-57 0 -96.5 39.5t-39.5 97.5v42q0 15 9 22.5t21 7.5t20.5 -9.5t8.5 -20.5v-42q0 -32 20.5 -52.5t52.5 -20.5h580q32 0 52.5 20.5t20.5 52.5v183q0 15 9 22.5t21 7.5t20.5 -9.5t8.5 -20.5v-183q7 -57 -31 -97t-97 -40zM201 141
q-10 0 -16 -6t-6 -16v-42q0 -54 38 -91t90 -37h580q54 0 91 38t37 90v183q0 9 -7 15.5t-14 6.5q-9 0 -15 -6t-6 -16v-183q0 -35 -24.5 -58t-56.5 -23h-585q-34 0 -57.5 24t-23.5 57v42q0 7 -8 14.5t-17 7.5zM282 171h-171q-15 0 -22.5 9t-7.5 21q0 13 8.5 23.5t21.5 10.5
h162q15 0 22.5 -9.5t7.5 -20.5q0 -17 -4 -26q-9 -8 -17 -8zM111 230q-9 0 -15 -9t-6 -16q0 -10 5.5 -16t15.5 -6h166q9 0 17 9q4 0 6 5t-1 8q0 10 -6 17.5t-16 7.5h-166zM201 256q-13 0 -21.5 10t-8.5 20v166q0 15 9 22.5t21 7.5t20.5 -9.5t8.5 -20.5v-166q4 -10 -6.5 -20
t-22.5 -10zM200.5 478q-9.5 0 -15.5 -6t-6 -15v-167q0 -9 6 -15t16 -6q8 0 14.5 7t6.5 14v167q3 6 -4.5 13.5t-17 7.5zM994 448q-15 0 -22.5 9.5t-7.5 20.5v183q0 32 -20 52.5t-52 20.5h-585q-32 0 -52 -20.5t-20 -52.5v-38q0 -15 -9.5 -22.5t-20.5 -7.5q-13 0 -23.5 8.5
t-10.5 21.5v38q0 58 39.5 97.5t96.5 39.5h580q58 0 97.5 -39.5t39.5 -97.5v-179q0 -17 -4 -25q-17 -9 -26 -9zM307 747h580q35 0 58.5 -24.5t23.5 -56.5v-184q0 -9 5.5 -15t15.5 -6q8 0 17 8q4 5 4 17v184q0 54 -38 91t-90 37h-580q-54 0 -91 -38t-37 -90v-39q0 -8 9 -14.5
t17 -6.5q9 0 15 6t6 15v30q3 36 27 61t58 25zM282 508h-171q-13 0 -21.5 8.5t-8.5 21.5q0 14 9.5 21.5t20.5 7.5h162q15 0 22.5 -9t7.5 -20q0 -17 -4 -22q0 -3 -5.5 -5.5t-11.5 -2.5zM111 563q-7 0 -14 -6t-7 -15t7 -15t14 -6h166q9 0 17 8q5 0 5 9q0 10 -6 17.5t-16 7.5
h-166zM777 512h-338q-29 0 -29 30q0 9 8 17t17 8h337q12 0 19 -7.5t7 -17.5q3 -13 -3 -21.5t-18 -8.5zM777 341h-338q-12 0 -18.5 8t-6.5 18t8 18t17 8h338q12 0 18.5 -8t6.5 -18t-6.5 -18t-18.5 -8zM777 175h-338q-12 0 -18.5 7.5t-6.5 18t9 20t21 9.5h337q12 0 18.5 -7.5
t6.5 -17.5q0 -13 -8.5 -21.5t-20.5 -8.5zM998.5 256q-44.5 0 -78 33t-33.5 78t33.5 78t78 33t77.5 -33t33 -78t-33 -78t-77.5 -33zM998.5 422q-22.5 0 -39 -16.5t-16.5 -38.5t16.5 -39t39 -17t39 17t16.5 39q-3 26 -18 40.5t-37.5 14.5zM777 171h-338q-14 0 -21.5 9t-7.5 21
t10.5 23t23.5 11h337q14 0 22 -9.5t8 -20.5q0 -13 -11 -23.5t-23 -10.5zM439 230q-9 0 -17 -8t-8 -17.5t6 -15.5t15 -6h337q10 0 18 8t8 18t-6 15.5t-15 5.5h-338zM998 252q-47 0 -81 34.5t-34 80.5q0 47 35 81t80 34t80.5 -35t35.5 -80t-35.5 -80t-80.5 -35zM998 478
q-44 0 -75 -32t-31 -75q0 -44 32 -75t74 -31t74.5 32.5t32.5 74t-32.5 74t-74.5 32.5zM998 311q-25 0 -42 17.5t-17 43t17 42.5t42.5 17t42.5 -17t17 -43q0 -25 -18 -42.5t-42 -17.5zM998 418q-22 0 -36.5 -14.5t-14.5 -36.5t14.5 -36.5t37 -14.5t37 14.5t14.5 36.5
t-16 36.5t-36 14.5zM777 337h-338q-14 0 -21.5 9.5t-7.5 20.5q0 12 9.5 21t19.5 9h338q14 0 21.5 -9.5t7.5 -20.5q0 -10 -8.5 -20t-20.5 -10zM435 393q-9 0 -15 -7.5t-6 -14.5q0 -9 6 -15t15 -6h337q22 0 22 21q0 7 -6.5 14.5t-15.5 7.5h-337zM777 508h-338q-14 0 -21.5 9
t-7.5 21t9.5 20.5t19.5 8.5h338q14 0 21.5 -9t7.5 -20t-8.5 -20.5t-20.5 -9.5zM435 563q-9 0 -15 -7t-6 -14q0 -10 6 -15.5t15 -5.5h337q22 0 22 21q0 7 -6.5 14t-15.5 7h-337z" />
    <glyph glyph-name="collection" unicode="&#xe651;" 
d="M712 282q-14 0 -17 -4l-74 104q7 14 7 24q0 20 -15 35t-35.5 15t-35.5 -15t-15 -35t14 -34l-98 -201h-7q-10 0 -23 -7l-101 128q7 13 7 27q0 20 -15 35t-35.5 15t-35.5 -15t-15 -35.5t15 -35.5t36 -15q10 0 16 4l104 -131q-3 -7 -3 -21q0 -20 15 -35t35.5 -15t35.5 15
t15 35q0 17 -14 37l94 202h14q10 0 17 3l73 -104q-6 -13 -6 -23q0 -21 15 -36t35 -15t35 15t15 36q0 19 -16 33t-37 14zM786 -14h-568q-50 0 -83.5 35t-33.5 86v339q0 50 34.5 85.5t82.5 35.5h568q50 0 83.5 -35t33.5 -86v-339q3 -50 -32 -85.5t-85 -35.5zM218 513
q-28 0 -49 -20.5t-21 -49.5v-339q0 -29 20.5 -50t49.5 -21h568q28 0 49 20.5t21 50.5v342q0 28 -20.5 49.5t-49.5 21.5zM786 621h-564q-10 0 -17 6.5t-7 16.5t7 17t17 7h564q10 0 16.5 -7t6.5 -17t-6.5 -16.5t-16.5 -6.5zM685 708h-366q-10 0 -17 6.5t-7 17t7 17t17 6.5h366
q10 0 16.5 -6.5t6.5 -17.5q3 -7 -5 -15t-18 -8z" />
    <glyph glyph-name="jiesuan" unicode="&#xe653;" 
d="M801 790h-537q-30 0 -51 -19.5t-21 -45.5v-611q0 -28 20.5 -46.5t51.5 -18.5h537q29 0 50 19.5t21 45.5v608q0 28 -20.5 48t-50.5 20zM829 111q0 -9 -8.5 -15.5t-19.5 -6.5h-537q-12 0 -20 6.5t-8 15.5v611q0 9 8 15.5t20 6.5h537q11 0 19.5 -6.5t8.5 -15.5v-611z
M829 111zM714 701h-366q-19 0 -33 -12.5t-14 -28.5v-46q0 -19 14 -31.5t33 -12.5h366q19 0 32.5 12.5t13.5 31.5v46q0 18 -13.5 29.5t-32.5 11.5zM714 614h-363h-3v43h363v-43h3zM714 614zM484 310l-15 15q-3 2 -8.5 2t-7.5 -2l-56 -53l-56 53q-2 2 -7.5 2t-7.5 -2l-16 -15
q-2 -3 -2 -8.5t2 -7.5l56 -53l-56 -52q-2 -3 -2 -8.5t2 -7.5l16 -16q2 -2 7.5 -2t7.5 2l56 53l56 -53q2 -2 7.5 -2t8.5 2l15 16q2 2 2 7.5t-2 8.5l-56 52l56 53q5 10 0 16zM484 310zM748 462h-158q-5 0 -9 -4t-4 -9v-22q0 -4 4 -8t9 -4h158q4 0 8 4t4 8v22q0 5 -4 9t-8 4z
M748 462zM317 418h55v-56q0 -4 4 -8t9 -4h21q5 0 9 4t4 8v56h56q4 0 8 4t4 9v21q0 5 -4 9t-8 4h-56v56q0 4 -4 8t-9 4h-21q-5 0 -9 -4t-4 -8v-59h-55q-5 0 -9 -4t-4 -9v-22q0 -9 13 -9zM317 418zM645 306.5q0 -9.5 6.5 -15.5t15.5 -6t15.5 6t6.5 15.5t-6.5 15.5t-15.5 6
t-15.5 -6t-6.5 -15.5zM645 306zM645 176q0 -9 6.5 -15.5t15.5 -6.5t15.5 6.5t6.5 15.5t-6.5 15.5t-15.5 6.5t-15.5 -6.5t-6.5 -15.5zM645 176zM748 263h-158q-5 0 -9 -4t-4 -8v-22q0 -5 4 -9t9 -4h158q4 0 8 4t4 9v22q0 12 -12 12zM748 263z" />
    <glyph glyph-name="icon_quotation" unicode="&#xe654;" horiz-adv-x="1041" 
d="M453 88h-234q-27 0 -47.5 21t-20.5 50v651l-18 -18h560q28 0 48.5 -21.5t20.5 -50.5v-266q0 -8 5 -13t13 -5t13 5t5 13v266q0 45 -30.5 76.5t-74.5 31.5h-582v-669q0 -45 30.5 -76t74.5 -31h233q8 0 13 5t5 13q0 18 -14 18zM244 544h435q8 0 13 5t5 13t-5 13t-13 5h-435
q-6 0 -12 -5.5t-6 -13t6 -12.5t12 -5zM248 659h435q8 0 13 5t5 13t-5 13t-13 5h-435q-8 0 -13 -5t-5 -13t5 -13t13 -5zM683 48q78 0 134 56t56 134.5t-56 134.5t-134 56t-134.5 -56t-56.5 -134.5t56.5 -134.5t134.5 -56zM683 88q-62 0 -106.5 44.5t-44.5 106t44.5 106
t106.5 44.5t106.5 -44.5t44.5 -106t-44.5 -106t-106.5 -44.5zM934 -53q-7 0 -14 8l-122 151q-11 10 3 25q11 10 25 -4l126 -151q11 -11 -3 -25q-4 0 -8.5 -2t-6.5 -2z" />
    <glyph glyph-name="caiwu" unicode="&#xe655;" horiz-adv-x="1112" 
d="M897 769h-618q-32 0 -55 -22.5t-23 -51.5v-590q0 -31 23 -52.5t55 -21.5h618q32 0 56.5 22.5t24.5 51.5v590q-3 29 -26.5 51.5t-54.5 22.5zM886 77h-600q-16 0 -25.5 9.5t-9.5 25.5v134h254q2 -25 15.5 -39t30.5 -14q19 0 31 13.5t15 39.5h32q2 -25 15 -37t30.5 -12
t30.5 12t15 37h36q2 -25 15 -37t31 -12t30.5 13t14.5 36h68v-134q5 -13 -4 -24t-25 -11zM251 296v201h63q3 -25 16 -37t30 -12q41 0 46 49h35q3 -25 16 -37t30 -12q41 0 46 49h226q3 -25 16 -37t30 -12q41 0 46 49h67v-201h-67q-3 25 -15.5 37t-30.5 12q-41 0 -46 -49h-35
q-3 25 -16 39t-30 14q-19 0 -31 -13.5t-15 -39.5h-32q-2 25 -15 37t-31 12q-41 0 -46 -49h-257zM922 550h-67q-3 25 -16 37t-30 12q-19 0 -31.5 -12.5t-14.5 -36.5h-226q-3 25 -16 37t-30 12q-19 0 -31 -12.5t-15 -36.5h-35q-3 25 -16 37t-30 12t-30.5 -13t-15.5 -36h-67
v134q0 14 10 24.5t25 10.5h600q16 0 26 -9.5t10 -25.5v-134z" />
    <glyph glyph-name="logo" unicode="&#xe656;" horiz-adv-x="2728" 
d="M2263 114h309q-32 -43 -79.5 -69t-103.5 -26h-152zM1362 210q31 43 79 69t104 26h923q-32 -43 -79.5 -69t-103.5 -26h-923zM203 305q82 68 189 105.5t215 37.5h25q114 0 193.5 31t164.5 91q83 59 181.5 88t198.5 29h583q-32 -43 -79.5 -69.5t-103.5 -26.5h-400
q-106 0 -178 -25t-140 -70q-5 -3 -15 -10q-41 -28 -68.5 -44t-79 -40.5t-111.5 -36.5t-127 -12h-33q-83 0 -178 -27q-79 -21 -148 -21h-89zM2039 19h-34q-50 0 -38 42q0 1 1 5.5l1 4.5q7 24 21 33.5t39 9.5h35l-2 -10h-33q-18 0 -27 -7t-15 -26q0 -7 -3 -10q-9 -33 24 -33
h33zM1851 19l26 95h16l39 -73l19 73h14l-26 -95h-15l-39 73l-19 -73h-15zM1738 19l71 95h16l20 -95h-18l-6 27h-49l-19 -27h-15zM1781 56h39l-9 41zM1650 19l26 95h50q12 0 19 -6t5 -17q-3 -16 -9.5 -23t-20.5 -7h-7l22 -42h-18l-22 42h-16l-12 -42h-17zM1681 72h30
q10 0 14.5 3.5t7.5 13.5q2 8 -2 12t-14 4h-28zM1576 114h16l-16 -60q-4 -15 -1 -20t16 -5h11q20 0 26 24l17 61h14l-17 -64q-5 -16 -12 -23.5t-23 -7.5h-25q-16 0 -22.5 6t-1.5 24zM1455 19l4 10h36q27 0 30 13q2 6 -5.5 11t-17 9t-17 11.5t-6.5 17.5q3 23 34 23h43l-2 -10
h-35q-19 0 -23 -11q-1 -6 6.5 -12t17.5 -10t17 -12t4 -18q-5 -22 -46 -22h-40zM1349 19l26 95h16l39 -73l19 73h14l-25 -95h-16l-38 73l-20 -73h-15zM1311 19l26 95h16l-26 -95h-16zM2055 19l26 95h78l-2 -10h-62l-9 -33h62l-2 -10h-62l-9 -32h62l-2 -10h-80zM1516 400
q31 43 79 69.5t104 26.5h666q-32 -43 -79.5 -69.5t-103.5 -26.5h-666zM217 162h51q26 0 37 -7t6 -24l-8 -34q-6 -19 -18.5 -25t-42.5 -6h-51zM775 210q52 0 53 -37l9 -119l74 127q10 18 27.5 23.5t45.5 5.5l-95 -165q-15 -26 -46 -26h-53zM704 63q-12 -43 -63 -43l40 147
q12 43 63 43zM562 91l34 -71q-30 0 -45.5 6t-23.5 24l-42 89h69q18 0 20 11q-3 10 -15 12h-85l-27 -100q-12 -43 -63 -43l51 191h146q32 0 43.5 -11.5t3.5 -36.5l-7 -26q-7 -27 -16.5 -36t-36.5 -9h-6zM1018 210h216q-21 -48 -64 -48h-113l-6 -23h165q-22 -48 -65 -48h-113
l-6 -24h165q-21 -48 -64 -48h-165zM177 210h105q49 0 70.5 -17.5t11.5 -56.5l-11 -43q-6 -22 -14 -36t-15.5 -22t-21 -11.5t-23.5 -4t-30 -0.5h-122z" />
    <glyph glyph-name="right" unicode="&#xe658;" horiz-adv-x="1427" 
d="M0 896l1427 -1024v1024h-1427v0zM1263 704l-282 -323l-7 -7t-16.5 -5t-23.5 12l-121 161q-15 22 3 34q0 1 2.5 2t3.5 1.5t3.5 1.5t4.5 1h5t5.5 -1t6 -3t6.5 -5l109 -83l270 242q2 1 5.5 3t13 4.5t15.5 -4.5q13 -7 -3 -31z" />
    <glyph glyph-name="wrong" unicode="&#xe659;" horiz-adv-x="1427" 
d="M0 896l1427 -1024v1024h-1427v0zM1232 346.5q-9 -9.5 -23 -9.5t-24 10l-127 127l-127 -127q-9 -10 -23.5 -10t-26.5 10q-9 9 -9 23.5t9 25.5l127 128l-127 127q-9 9 -9 23.5t9 26.5q10 9 24 9t26 -9l127 -128l127 128q10 9 24 9t23 -9.5t9 -24t-9 -25.5l-127 -127
l127 -128q9 -11 9 -25.5t-9 -24z" />
    <glyph glyph-name="home_fail" unicode="&#xe65a;" 
d="M512 896q-138 0 -256 -69t-187 -187t-69 -256t69 -256t187 -187t256 -69t256 69t187 187t69 256t-69 256t-187 187t-256 69zM713 158q-8 -10 -27 -18.5t-47.5 -6t-49.5 24.5q-6 6 -33.5 38.5t-47.5 55.5q-77 -94 -81 -98q-22 -22 -49 -24.5t-45 5.5t-26 19q-23 26 -1 57
t115 121l14 14l-132 170q-11 18 0 54q12 39 36 25q3 -3 7 -6q94 -101 170 -171q98 98 158 162q26 26 39 -12q10 -36 0 -60q-60 -77 -124 -162q4 -5 13 -13q90 -87 112 -118t-1 -57z" />
    <glyph glyph-name="security_icon" unicode="&#xe65b;" 
d="M1021 327q-14 -126 -84.5 -230.5t-182.5 -164.5t-241 -60q-104 0 -199 40.5t-163.5 109t-109 163.5t-40.5 199t40.5 199t109 163.5t163.5 109t199 40.5q100 0 191.5 -37.5t159 -101.5t110.5 -153t49 -187q0 -45 -2 -90zM750 579q-38 -33 -106 -107t-118 -127.5t-60 -53.5
q-11 -1 -37.5 19t-62.5 52t-42 37q-24 19 -50 5.5t-21 -41.5t79.5 -112.5t97.5 -103.5q11 -10 25.5 -17t38.5 -5.5t43 22.5q18 20 80 110t115 169.5t53 80.5q10 20 1 55q-10 40 -36 17z" />
    <glyph glyph-name="zhuye" unicode="&#xe600;" 
d="M953 373l-384 386q-22 22 -57 22t-57 -22l-383 -386q-8 -8 -8 -18t7.5 -17.5t17.5 -7.5t17 8l58 57v-328q0 -34 23 -57t56 -23h558q34 0 58 24t24 58v301l33 -32q7 -8 17 -8t18 8q9 7 9 17t-7 18zM612 37h-199v221q0 11 8 19.5t19 8.5h142q11 0 19 -8t8 -20v-221h3z
M836 69q0 -13 -9.5 -22.5t-23.5 -9.5h-141v221q0 32 -23 55t-55 23h-142q-31 0 -54 -23t-23 -55v-221h-119q-13 0 -21.5 9t-8.5 21v378l274 279q9 9 22 9t22 -9l302 -304v-351z" />
  </font>
</defs>
</svg>
